<svg width="27" height="27" viewBox="0 0 27 27" fill="none" xmlns="http://www.w3.org/2000/svg">
<path d="M13.5 2.25C7.29 2.25 2.25 7.29 2.25 13.5C2.25 19.71 7.29 24.75 13.5 24.75C19.71 24.75 24.75 19.71 24.75 13.5C24.75 7.29 19.71 2.25 13.5 2.25ZM18.72 9.9C18.5512 11.6775 17.82 15.9975 17.4488 17.9887C17.2913 18.8325 16.9762 19.1138 16.6837 19.1475C16.0312 19.2038 15.5363 18.72 14.9062 18.3038C13.9163 17.6513 13.3538 17.2463 12.3975 16.6163C11.2838 15.885 12.0037 15.48 12.645 14.8275C12.8137 14.6588 15.6937 12.0375 15.75 11.8012C15.7578 11.7655 15.7568 11.7283 15.747 11.693C15.7372 11.6577 15.7189 11.6254 15.6937 11.5988C15.6262 11.5425 15.5362 11.565 15.4575 11.5762C15.3562 11.5987 13.7813 12.645 10.71 14.715C10.26 15.0187 9.855 15.1762 9.495 15.165C9.09 15.1537 8.325 14.94 7.75125 14.7487C7.0425 14.5237 6.49125 14.4 6.53625 14.0062C6.55875 13.8037 6.84 13.6012 7.36875 13.3875C10.6538 11.9587 12.8363 11.0138 13.9275 10.5638C17.055 9.25875 17.6963 9.03375 18.1238 9.03375C18.2138 9.03375 18.4275 9.05625 18.5625 9.16875C18.675 9.25875 18.7087 9.3825 18.72 9.4725C18.7087 9.54 18.7312 9.7425 18.72 9.9Z" fill="white"/>
</svg>
