<svg width="27" height="27" viewBox="0 0 27 27" fill="none" xmlns="http://www.w3.org/2000/svg">
<path d="M16.9571 2.25H10.0552C3.7485 2.25 2.25 3.74963 2.25 10.0429V16.9459C2.25 23.2504 3.73837 24.75 10.0429 24.75H16.9459C23.2504 24.75 24.75 23.2616 24.75 16.9571V10.0552C24.75 3.7485 23.2616 2.25 16.9571 2.25ZM20.4142 18.3038H18.7729C18.1519 18.3038 17.9651 17.8009 16.8514 16.6871C15.8794 15.75 15.4688 15.633 15.2224 15.633C14.8826 15.633 14.7892 15.7264 14.7892 16.1955V17.6715C14.7892 18.0709 14.6599 18.3049 13.617 18.3049C12.6051 18.2361 11.6239 17.9283 10.754 17.4068C9.88411 16.8852 9.15036 16.1647 8.613 15.3045C7.33764 13.7188 6.45078 11.8569 6.02325 9.86737C6.02325 9.621 6.11663 9.39825 6.58575 9.39825H8.22713C8.649 9.39825 8.80087 9.58613 8.96512 10.0193C9.76162 12.3638 11.1206 14.4023 11.6719 14.4023C11.8834 14.4023 11.9756 14.3089 11.9756 13.7812V11.367C11.9059 10.2656 11.3209 10.1722 11.3209 9.774C11.3284 9.66896 11.3765 9.57097 11.4551 9.50083C11.5336 9.43068 11.6364 9.39389 11.7416 9.39825H14.3201C14.6723 9.39825 14.7892 9.57375 14.7892 9.99563V13.2536C14.7892 13.6058 14.9411 13.7227 15.0469 13.7227C15.2584 13.7227 15.4215 13.6058 15.8085 13.2188C16.6397 12.2051 17.3188 11.0757 17.8245 9.86625C17.8765 9.72118 17.9744 9.59702 18.1033 9.51257C18.2322 9.42812 18.3851 9.38799 18.5389 9.39825H20.1802C20.6719 9.39825 20.7765 9.64463 20.6719 9.99563C20.0751 11.3326 19.3366 12.6018 18.4691 13.7812C18.2925 14.0512 18.2216 14.1919 18.4691 14.508C18.6322 14.7544 19.2071 15.2347 19.5941 15.6915C20.1563 16.2527 20.6233 16.9017 20.9767 17.613C21.1174 18.0698 20.8822 18.3038 20.4142 18.3038Z" fill="white"/>
</svg>
